<?xml version="1.0" encoding="UTF-8" standalone="no"?>
<svg
   xmlns:dc="http://purl.org/dc/elements/1.1/"
   xmlns:cc="http://creativecommons.org/ns#"
   xmlns:rdf="http://www.w3.org/1999/02/22-rdf-syntax-ns#"
   xmlns:svg="http://www.w3.org/2000/svg"
   xmlns="http://www.w3.org/2000/svg"
   xmlns:sodipodi="http://sodipodi.sourceforge.net/DTD/sodipodi-0.dtd"
   xmlns:inkscape="http://www.inkscape.org/namespaces/inkscape"
   version="1.1"
   width="121.98005"
   height="24"
   viewBox="0 0 121.98005 24"
   id="logo-wide"
   sodipodi:docname="logo-wide.svg"
   inkscape:version="1.0 (4035a4fb49, 2020-05-01)">
  <metadata
     id="metadata64">
    <rdf:RDF>
      <cc:Work
         rdf:about="">
        <dc:format>image/svg+xml</dc:format>
        <dc:type
           rdf:resource="http://purl.org/dc/dcmitype/StillImage" />
        <dc:title>logo-wide</dc:title>
      </cc:Work>
    </rdf:RDF>
  </metadata>
  <defs
     id="defs62" />
  <sodipodi:namedview
     inkscape:document-rotation="0"
     pagecolor="#ffffff"
     bordercolor="#666666"
     borderopacity="1"
     objecttolerance="10"
     gridtolerance="10"
     guidetolerance="10"
     inkscape:pageopacity="0"
     inkscape:pageshadow="2"
     inkscape:window-width="1920"
     inkscape:window-height="1002"
     id="namedview60"
     showgrid="false"
     inkscape:zoom="4.2291667"
     inkscape:cx="121.55727"
     inkscape:cy="-36.94031"
     inkscape:window-x="-8"
     inkscape:window-y="-8"
     inkscape:window-maximized="1"
     inkscape:current-layer="logo-wide"
     inkscape:pagecheckerboard="true"
     fit-margin-left="1.5"
     fit-margin-right="1.5"
     fit-margin-bottom="1.5"
     fit-margin-top="1.5" />
  <title
     id="title38">logo</title>
  <path
     d="m 4.5,1.5 c -1.657,0 -3,1.343 -3,3 0,1.657 1.343,3 3,3 1.657,0 3,-1.343 3,-3 v 0 C 7.498,2.844 6.156,1.502 4.5,1.5 Z M 4.5,6 C 3.672,6 3,5.328 3,4.5 3,3.672 3.672,3 4.5,3 5.328,3 6,3.672 6,4.5 v 0 C 5.999,5.328 5.328,5.999 4.5,6 Z"
     id="path40"
     style="fill:#1bbd93;fill-opacity:1" />
  <path
     d="m 12.375,1.5 c -1.657,0 -3,1.343 -3,3 0,1.657 1.343,3 3,3 1.657,0 3,-1.343 3,-3 v 0 c -0.002,-1.656 -1.344,-2.998 -3,-3 z m 0,4.5 c -0.828,0 -1.5,-0.672 -1.5,-1.5 0,-0.828 0.672,-1.5 1.5,-1.5 0.828,0 1.5,0.672 1.5,1.5 v 0 c -10e-4,0.828 -0.672,1.499 -1.5,1.5 z"
     id="path42"
     style="fill:#1bbd93;fill-opacity:1" />
  <path
     d="m 20.25,7.5 c 1.657,0 3,-1.343 3,-3 0,-1.657 -1.343,-3 -3,-3 -1.657,0 -3,1.343 -3,3 v 0 c 0.002,1.656 1.344,2.998 3,3 z m 0,-4.5 c 0.828,0 1.5,0.672 1.5,1.5 0,0.828 -0.672,1.5 -1.5,1.5 -0.828,0 -1.5,-0.672 -1.5,-1.5 v 0 C 18.751,3.672 19.422,3.001 20.25,3 Z"
     id="path44"
     style="fill:#1bbd93;fill-opacity:1" />
  <path
     d="m 4.5,9 c -1.657,0 -3,1.343 -3,3 0,1.657 1.343,3 3,3 1.657,0 3,-1.343 3,-3 v 0 C 7.498,10.344 6.156,9.002 4.5,9 Z m 0,4.5 C 3.672,13.5 3,12.828 3,12 3,11.172 3.672,10.5 4.5,10.5 5.328,10.5 6,11.172 6,12 v 0 c -0.001,0.828 -0.672,1.499 -1.5,1.5 z"
     id="path46" />
  <path
     d="m 12.375,9 c -1.657,0 -3,1.343 -3,3 0,1.657 1.343,3 3,3 1.657,0 3,-1.343 3,-3 v 0 c -0.002,-1.656 -1.344,-2.998 -3,-3 z m 0,4.5 c -0.828,0 -1.5,-0.672 -1.5,-1.5 0,-0.828 0.672,-1.5 1.5,-1.5 0.828,0 1.5,0.672 1.5,1.5 v 0 c -10e-4,0.828 -0.672,1.499 -1.5,1.5 z"
     id="path48" />
  <path
     d="m 20.25,9 c -1.657,0 -3,1.343 -3,3 0,1.657 1.343,3 3,3 1.657,0 3,-1.343 3,-3 v 0 c -0.002,-1.656 -1.344,-2.998 -3,-3 z m 0,4.5 c -0.828,0 -1.5,-0.672 -1.5,-1.5 0,-0.828 0.672,-1.5 1.5,-1.5 0.828,0 1.5,0.672 1.5,1.5 v 0 c -0.001,0.828 -0.672,1.499 -1.5,1.5 z"
     id="path50"
     style="fill:#1bbd93;fill-opacity:1" />
  <path
     d="m 4.5,16.5 c -1.657,0 -3,1.343 -3,3 0,1.657 1.343,3 3,3 1.657,0 3,-1.343 3,-3 v 0 c -0.002,-1.656 -1.344,-2.998 -3,-3 z m 0,4.5 C 3.672,21 3,20.328 3,19.5 3,18.672 3.672,18 4.5,18 5.328,18 6,18.672 6,19.5 v 0 C 5.999,20.328 5.328,20.999 4.5,21 Z"
     id="path52" />
  <path
     d="m 12.375,16.5 c -1.657,0 -3,1.343 -3,3 0,1.657 1.343,3 3,3 1.657,0 3,-1.343 3,-3 v 0 c -0.002,-1.656 -1.344,-2.998 -3,-3 z m 0,4.5 c -0.828,0 -1.5,-0.672 -1.5,-1.5 0,-0.828 0.672,-1.5 1.5,-1.5 0.828,0 1.5,0.672 1.5,1.5 v 0 c -10e-4,0.828 -0.672,1.499 -1.5,1.5 z"
     id="path54" />
  <path
     d="m 20.25,16.5 c -1.657,0 -3,1.343 -3,3 0,1.657 1.343,3 3,3 1.657,0 3,-1.343 3,-3 v 0 c -0.002,-1.656 -1.344,-2.998 -3,-3 z m 0,4.5 c -0.828,0 -1.5,-0.672 -1.5,-1.5 0,-0.828 0.672,-1.5 1.5,-1.5 0.828,0 1.5,0.672 1.5,1.5 v 0 c -0.001,0.828 -0.672,1.499 -1.5,1.5 z"
     id="path56"
     style="fill:#1bbd93;fill-opacity:1" />
  <g
     style="font-style:normal;font-weight:normal;font-size:20px;line-height:1.25;font-family:sans-serif;fill-opacity:1;stroke:none"
     id="text899"
     aria-label="Home">
    <path
       id="path851"
       style="font-style:normal;font-variant:normal;font-weight:normal;font-stretch:normal;font-size:20px;font-family:Calibri;-inkscape-font-specification:'Calibri, Normal';font-variant-ligatures:normal;font-variant-caps:small-caps;font-variant-numeric:normal;font-variant-east-asian:normal"
       d="m 34.860683,18.425896 q 0,0.07813 -0.03906,0.136718 -0.03906,0.05859 -0.136719,0.09766 -0.09766,0.0293 -0.263672,0.04883 -0.15625,0.0293 -0.390625,0.0293 -0.253906,0 -0.410156,-0.0293 -0.15625,-0.01953 -0.253906,-0.04883 -0.09766,-0.03906 -0.136719,-0.09766 -0.03906,-0.05859 -0.03906,-0.136718 v -5.605469 h -5.751954 v 5.605469 q 0,0.07813 -0.03906,0.136718 -0.03906,0.05859 -0.136719,0.09766 -0.09766,0.0293 -0.263672,0.04883 -0.15625,0.0293 -0.40039,0.0293 -0.234375,0 -0.400391,-0.0293 -0.166016,-0.01953 -0.263672,-0.04883 -0.09766,-0.03906 -0.136719,-0.09766 -0.03906,-0.05859 -0.03906,-0.136718 V 6.2969894 q 0,-0.078125 0.03906,-0.1367187 0.03906,-0.058594 0.136719,-0.087891 0.09766,-0.039063 0.263672,-0.058594 0.166016,-0.029297 0.400391,-0.029297 0.24414,0 0.40039,0.029297 0.166016,0.019531 0.263672,0.058594 0.09766,0.029297 0.136719,0.087891 0.03906,0.058594 0.03906,0.1367187 v 5.0585936 h 5.751954 V 6.2969894 q 0,-0.078125 0.03906,-0.1367187 0.03906,-0.058594 0.136719,-0.087891 0.09766,-0.039063 0.253906,-0.058594 0.15625,-0.029297 0.410156,-0.029297 0.234375,0 0.390625,0.029297 0.166016,0.019531 0.263672,0.058594 0.09766,0.029297 0.136719,0.087891 0.03906,0.058594 0.03906,0.1367187 z" />
    <path
       id="path853"
       style="font-style:normal;font-variant:normal;font-weight:normal;font-stretch:normal;font-size:20px;font-family:Calibri;-inkscape-font-specification:'Calibri, Normal';font-variant-ligatures:normal;font-variant-caps:small-caps;font-variant-numeric:normal;font-variant-east-asian:normal"
       d="m 47.204433,13.386833 q 0,1.269531 -0.322265,2.285156 -0.3125,1.00586 -0.9375,1.71875 -0.615235,0.703125 -1.533203,1.083985 -0.917969,0.380859 -2.109375,0.380859 -1.191407,0 -2.089844,-0.332031 -0.888672,-0.332031 -1.494141,-0.986328 -0.595703,-0.664063 -0.888672,-1.650391 -0.292968,-0.986328 -0.292968,-2.294922 0,-1.230468 0.322265,-2.226562 0.322266,-1.00586 0.947266,-1.7089846 0.625,-0.703125 1.542969,-1.0839843 0.917968,-0.3808594 2.109375,-0.3808594 1.142578,0 2.021484,0.3320312 0.888672,0.3320313 1.494141,0.9863282 0.605468,0.6542969 0.917968,1.6210939 0.3125,0.966797 0.3125,2.255859 z m -1.738281,0.107422 q 0,-0.859375 -0.166015,-1.572266 -0.15625,-0.722656 -0.517579,-1.25 Q 44.42123,10.144646 43.835293,9.8516769 43.249355,9.5587082 42.38998,9.5587082 q -0.859375,0 -1.455078,0.3125 -0.585937,0.3124998 -0.957031,0.8593748 -0.361328,0.53711 -0.537109,1.259766 -0.166016,0.71289 -0.166016,1.503906 0,0.888672 0.15625,1.621094 0.15625,0.732422 0.517578,1.269531 0.371094,0.527344 0.957031,0.820313 0.585938,0.283203 1.445313,0.283203 0.859375,0 1.455078,-0.322266 0.595703,-0.322266 0.966797,-0.869141 0.371094,-0.546875 0.527344,-1.269531 0.166015,-0.732422 0.166015,-1.533203 z" />
    <path
       id="path855"
       style="font-style:normal;font-variant:normal;font-weight:normal;font-stretch:normal;font-size:20px;font-family:Calibri;-inkscape-font-specification:'Calibri, Normal';font-variant-ligatures:normal;font-variant-caps:small-caps;font-variant-numeric:normal;font-variant-east-asian:normal"
       d="m 61.706387,18.455193 q 0,0.06836 -0.03906,0.126953 -0.0293,0.04883 -0.126953,0.08789 -0.08789,0.0293 -0.244141,0.04883 -0.15625,0.01953 -0.380859,0.01953 -0.244141,0 -0.400391,-0.01953 -0.15625,-0.01953 -0.24414,-0.04883 -0.08789,-0.03906 -0.126953,-0.08789 -0.0293,-0.05859 -0.0293,-0.126953 V 9.7930832 h -0.01953 L 56.45248,18.504021 q -0.03906,0.117187 -0.214843,0.175781 -0.166016,0.05859 -0.556641,0.05859 -0.205078,0 -0.341797,-0.01953 -0.136719,-0.0098 -0.224609,-0.03906 -0.08789,-0.0293 -0.136719,-0.06836 -0.03906,-0.04883 -0.06836,-0.107422 l -3.50586,-8.7109378 h -0.01953 v 8.6621098 q 0,0.06836 -0.03906,0.126953 -0.0293,0.04883 -0.117187,0.08789 -0.08789,0.0293 -0.244141,0.04883 -0.15625,0.01953 -0.40039,0.01953 -0.244141,0 -0.400391,-0.01953 -0.146484,-0.01953 -0.234375,-0.04883 -0.08789,-0.03906 -0.126953,-0.08789 -0.0293,-0.05859 -0.0293,-0.126953 V 9.0118332 q 0,-0.3320313 0.185547,-0.4882813 0.185547,-0.15625 0.419922,-0.15625 h 1.054687 q 0.302735,0 0.517578,0.058594 0.214844,0.058594 0.371094,0.1855469 0.166016,0.1269531 0.283203,0.3222656 0.117188,0.1953125 0.205078,0.4589844 l 2.900391,6.9921874 h 0.03906 l 2.988281,-6.9531249 q 0.117187,-0.2929688 0.234375,-0.4980469 0.126953,-0.2050781 0.283203,-0.3320313 0.166016,-0.1269531 0.361328,-0.1757812 0.205078,-0.058594 0.478516,-0.058594 h 0.996093 q 0.244141,0 0.419922,0.15625 0.175782,0.15625 0.175782,0.4882813 z" />
    <path
       id="path857"
       style="font-style:normal;font-variant:normal;font-weight:normal;font-stretch:normal;font-size:20px;font-family:Calibri;-inkscape-font-specification:'Calibri, Normal';font-variant-ligatures:normal;font-variant-caps:small-caps;font-variant-numeric:normal;font-variant-east-asian:normal"
       d="m 70.934902,18.015739 q 0,0.175782 -0.01953,0.302735 -0.01953,0.126953 -0.05859,0.214844 -0.0293,0.07813 -0.08789,0.117187 -0.04883,0.0293 -0.107422,0.0293 h -5.244141 q -0.195312,0 -0.371094,-0.136719 -0.175781,-0.146484 -0.175781,-0.46875 V 8.9727707 q 0,-0.3222656 0.175781,-0.4589844 0.175782,-0.1464844 0.371094,-0.1464844 h 5.175781 q 0.06836,0 0.117188,0.039063 0.05859,0.029297 0.08789,0.1074219 0.03906,0.078125 0.05859,0.2148438 0.01953,0.1269531 0.01953,0.3027343 0,0.1757813 -0.01953,0.3027344 -0.01953,0.1171875 -0.05859,0.1953125 -0.0293,0.068359 -0.08789,0.1074219 -0.04883,0.039063 -0.117188,0.039063 h -4.0625 v 3.0078123 h 3.50586 q 0.06836,0 0.117187,0.03906 0.05859,0.0293 0.09766,0.107422 0.03906,0.07813 0.04883,0.205078 0.01953,0.126953 0.01953,0.3125 0,0.166015 -0.01953,0.292968 -0.0098,0.117188 -0.04883,0.195313 -0.03906,0.07813 -0.09766,0.117187 -0.04883,0.0293 -0.117187,0.0293 h -3.50586 v 3.388672 h 4.13086 q 0.05859,0 0.107422,0.03906 0.05859,0.0293 0.08789,0.107422 0.03906,0.07813 0.05859,0.205078 0.01953,0.117187 0.01953,0.292968 z" />
  </g>
  <g
     style="font-style:normal;font-weight:normal;font-size:20px;line-height:1.25;font-family:sans-serif;fill:#1bbd93;fill-opacity:1;stroke:none"
     id="text903"
     aria-label="Dash">
    <path
       id="path860"
       style="font-style:normal;font-variant:normal;font-weight:normal;font-stretch:normal;font-size:20px;font-family:monospace;-inkscape-font-specification:monospace;fill:#1bbd93;fill-opacity:1"
       d="M 76.222237,18.332396 V 8.5472393 h -0.69336 q -0.292968,0 -0.419922,-0.1074219 -0.126953,-0.1171875 -0.126953,-0.3027343 0,-0.1855469 0.126953,-0.2929688 0.126954,-0.1171875 0.419922,-0.1171875 h 4.414063 q 1.035156,0 1.884765,0.4296875 0.859375,0.4296875 1.308594,0.9765625 0.771485,0.9277342 1.171875,1.9628902 0.283203,0.751954 0.283203,1.777344 v 1.132813 q 0,1.259765 -0.55664,2.441406 -0.556641,1.181641 -1.855469,2.060547 -0.966797,0.644531 -2.236328,0.644531 h -4.414063 q -0.292968,0 -0.419922,-0.117187 -0.126953,-0.117188 -0.126953,-0.292969 0,-0.185547 0.126953,-0.292969 0.126954,-0.117187 0.419922,-0.117187 z m 0.820312,0 h 2.978516 q 1.035156,0 1.933594,-0.673829 0.908203,-0.673828 1.357421,-1.611328 0.458985,-0.947265 0.458985,-1.865234 V 12.69763 q 0,-0.761719 -0.244141,-1.357422 Q 83.175362,10.471067 82.53083,9.6898174 82.179268,9.2601299 81.495674,8.9085674 80.81208,8.5472393 80.021065,8.5472393 h -2.978516 z" />
    <path
       id="path862"
       style="font-style:normal;font-variant:normal;font-weight:normal;font-stretch:normal;font-size:20px;font-family:monospace;-inkscape-font-specification:monospace;fill:#1bbd93;fill-opacity:1"
       d="m 93.790596,19.152708 v -1.181641 q -1.787109,1.503907 -3.818359,1.503907 -1.47461,0 -2.304688,-0.742188 -0.830078,-0.751953 -0.830078,-1.835937 0,-1.191407 1.09375,-2.080078 1.09375,-0.888672 3.193359,-0.888672 0.566407,0 1.230469,0.07813 0.664063,0.06836 1.435547,0.224609 v -1.328125 q 0,-0.673828 -0.625,-1.171875 -0.625,-0.498047 -1.875,-0.498047 -0.957031,0 -2.685547,0.556641 -0.3125,0.09766 -0.40039,0.09766 -0.15625,0 -0.273438,-0.117187 -0.107422,-0.117188 -0.107422,-0.292969 0,-0.166016 0.09766,-0.263672 0.136719,-0.146484 1.103516,-0.400391 1.523438,-0.410156 2.304688,-0.410156 1.552734,0 2.421875,0.771484 0.86914,0.761719 0.86914,1.728516 v 5.429688 h 1.09375 q 0.302735,0 0.429688,0.117187 0.126953,0.107422 0.126953,0.292969 0,0.175781 -0.126953,0.292969 -0.126953,0.117187 -0.429688,0.117187 z m 0,-4.082031 q -0.576172,-0.166016 -1.220703,-0.244141 -0.644531,-0.07813 -1.357422,-0.07813 -1.787109,0 -2.792969,0.771485 -0.761718,0.576171 -0.761718,1.376953 0,0.742187 0.576171,1.25 0.585938,0.507812 1.699219,0.507812 1.064453,0 1.972656,-0.419922 0.917969,-0.429687 1.884766,-1.357422 z" />
    <path
       id="path864"
       style="font-style:normal;font-variant:normal;font-weight:normal;font-stretch:normal;font-size:20px;font-family:monospace;-inkscape-font-specification:monospace;fill:#1bbd93;fill-opacity:1"
       d="m 106.13435,11.232786 q 0,-0.283203 0.11718,-0.410156 0.11719,-0.126953 0.29297,-0.126953 0.18555,0 0.30274,0.126953 0.11718,0.126953 0.11718,0.429687 v 1.40625 q 0,0.292969 -0.11718,0.419922 -0.11719,0.126953 -0.30274,0.126953 -0.16601,0 -0.2832,-0.107421 -0.10742,-0.107422 -0.12695,-0.351563 -0.0586,-0.585937 -0.60547,-0.966797 -0.80078,-0.546875 -2.11914,-0.546875 -1.37696,0 -2.13868,0.556641 -0.57617,0.419922 -0.57617,0.9375 0,0.585937 0.6836,0.976562 0.46875,0.273438 1.77734,0.419922 1.70898,0.185547 2.37305,0.419922 0.94726,0.341797 1.40625,0.947266 0.46875,0.605468 0.46875,1.308593 0,1.044922 -1.00586,1.865235 -1.00586,0.810547 -2.94922,0.810547 -1.94336,0 -3.18359,-0.986328 0,0.332031 -0.0391,0.429687 -0.0391,0.09766 -0.14648,0.166016 -0.09766,0.06836 -0.224611,0.06836 -0.175781,0 -0.292969,-0.126953 -0.117187,-0.126953 -0.117187,-0.419922 V 16.91638 q 0,-0.292969 0.107422,-0.419922 0.117187,-0.126953 0.302734,-0.126953 0.175781,0 0.292971,0.126953 0.12695,0.117188 0.12695,0.322266 0,0.449218 0.22461,0.751953 0.3418,0.46875 1.08398,0.78125 0.75196,0.302734 1.83594,0.302734 1.60156,0 2.38281,-0.595703 0.78125,-0.595703 0.78125,-1.259766 0,-0.761718 -0.79101,-1.220703 -0.80078,-0.458984 -2.33399,-0.615234 -1.52343,-0.15625 -2.1875,-0.410156 -0.66406,-0.253907 -1.03515,-0.761719 -0.371095,-0.507813 -0.371095,-1.09375 0,-1.054688 1.035155,-1.669922 1.03516,-0.625 2.4707,-0.625 1.69922,0 2.76368,0.830078 z" />
    <path
       id="path866"
       style="font-style:normal;font-variant:normal;font-weight:normal;font-stretch:normal;font-size:20px;font-family:monospace;-inkscape-font-specification:monospace;fill:#1bbd93;fill-opacity:1"
       d="m 112.71638,6.8968487 v 5.0488283 q 0.78125,-0.84961 1.49414,-1.191406 0.72265,-0.351563 1.61133,-0.351563 0.95703,0 1.62109,0.341797 0.67383,0.332031 1.12305,1.035156 0.44922,0.69336 0.44922,1.464844 v 5.087891 h 0.91796 q 0.30274,0 0.41993,0.117187 0.12695,0.107422 0.12695,0.292969 0,0.175781 -0.12695,0.292969 -0.11719,0.117187 -0.41993,0.117187 h -2.66601 q -0.30274,0 -0.42969,-0.117187 -0.12695,-0.117188 -0.12695,-0.292969 0,-0.185547 0.12695,-0.292969 0.12695,-0.117187 0.42969,-0.117187 h 0.91797 v -5.029297 q 0,-0.888672 -0.64453,-1.484375 -0.63477,-0.595703 -1.77735,-0.595703 -0.89844,0 -1.5332,0.439453 -0.45899,0.3125 -1.51367,1.474609 v 5.195313 h 0.92773 q 0.29297,0 0.41992,0.117187 0.12696,0.107422 0.12696,0.292969 0,0.175781 -0.12696,0.292969 -0.12695,0.117187 -0.41992,0.117187 h -2.67578 q -0.29297,0 -0.41992,-0.117187 -0.12695,-0.117188 -0.12695,-0.292969 0,-0.185547 0.12695,-0.292969 0.12695,-0.117187 0.41992,-0.117187 h 0.92773 V 7.7269268 h -1.10351 q -0.29297,0 -0.41992,-0.1171875 -0.12696,-0.1171875 -0.12696,-0.3027344 0,-0.1757812 0.12696,-0.2929687 0.12695,-0.1171875 0.41992,-0.1171875 z" />
  </g>
</svg>
