<svg version="1" xmlns="http://www.w3.org/2000/svg" width="533.333" height="533.333" viewBox="0 0 400.000000 400.000000"><path d="M57 26.4C29.5 34 13.6 60.7 20.5 87.5c1.5 5.7 5.8 14.7 8.2 17.2.6.7 2 2.3 3 3.6 1 1.2 3.9 3.9 6.4 5.9 16.2 13.2 40.4 14.1 58.6 2.1 17.1-11.2 25.7-34.4 20.4-54.3-3-10.9-12.2-23.2-21.9-29.4C85 26.2 67.9 23.4 57 26.4zm22 25.8c8.6 3.7 14.9 14 14.5 23.6-.8 19.1-21.8 30.4-37.8 20.2-17.3-10.9-15.2-35.6 3.8-44.1 4.8-2.1 14.1-2 19.5.3zM188.3 26.4c-11.8 3-23.9 11.6-30.2 21.5-4.9 7.6-7.3 15.5-7.6 25.1-.6 15 3.9 26.3 14.5 37.1 7.1 7.1 14.1 11.2 23.6 13.4 30.2 7.2 59.7-15 61-46 1-22.5-12.2-42.2-33.3-49.7-7.2-2.6-20.8-3.3-28-1.4zm24.1 27c14.2 8.3 16.7 27.5 5.1 39-9.6 9.6-24.9 9.8-35.1.5-3-2.8-6.6-10.5-7.2-15.4-1.2-11.3 6.5-22.9 17.7-26.6 4.9-1.6 14.7-.3 19.5 2.5zM319 26.6c-17.2 4.6-31.4 18.6-36 35.4-9.3 34.2 21.2 68.2 56 62.2 17.1-2.9 29.3-12.2 37.3-28.2l4.2-8.5v-12c0-13.2-1.5-18.8-7.5-27.6-12-17.9-34.1-26.6-54-21.3zm22 25.6c12.9 5.6 18.6 20.6 12.6 33.3-4.3 9.4-11.7 13.9-22.6 13.9-6.5 0-8.1-.4-12-2.8-5.5-3.4-7.4-5.7-10.4-11.9-7.7-15.7 5.4-35 23.3-34.3 3.1.1 7.2.9 9.1 1.8zM56.8 151.5c-37.3 9.5-50.4 55.6-23.7 83.2 22.6 23.3 62 18.8 78.3-9 13.5-23 7-52.7-14.6-67-11.5-7.5-27.4-10.4-40-7.2zm19.8 25c9.9 2.9 16.8 12.9 16.8 24-.3 26.1-36 33.7-47 10-5.9-12.6-.8-26.6 11.8-32.9 5.9-3 11.1-3.3 18.4-1.1zM188.3 151.4c-17.9 4.4-33.4 20.2-37.1 38.1-1.6 7.2-.7 20 1.7 26.9 6.9 19.4 24.2 32.3 44.6 33.2 15.5.6 27-3.9 37.6-14.6 8.3-8.4 12.5-16.7 14.1-28 2.7-18.1-4.8-35.9-19.7-47.2-10.6-8-28-11.6-41.2-8.4zm19.9 25.2c10.7 3.5 17.7 14.7 16.4 26-2.5 21-27.6 29.8-42.2 14.7-12-12.3-8.7-31.6 6.6-39.6 5.7-2.9 12.7-3.3 19.2-1.1zM320 151.4c-17.8 4.1-33.2 19.4-37.3 37.2-2.9 12.3-.7 26 5.8 36.9 4.4 7.3 8.4 11.6 15 15.9 33.2 21.9 77.5-1.7 77.5-41.3 0-32.1-29.8-55.8-61-48.7zm21 25.7c15.1 6.5 19.9 26.5 9.3 38.8-11.9 14-34.4 10.8-42-5.9-2.3-5.2-2.1-15.5.4-20.5 3-5.7 5.4-8.2 11.2-11.4 6.8-3.7 14.1-4 21.1-1zM55.3 277c-11.3 3.1-23.2 12.1-29 21.9-5.5 9.2-7.3 16.1-7 27.3.3 7.8.9 11.7 2.5 16 6.2 15.6 19 27 35.1 31.3 5.1 1.3 18.9 1.5 23.6.2 9.5-2.5 19.8-8.8 25.9-16.1 17.4-20.4 16.1-49.1-2.9-68.1-12.7-12.7-30.7-17.3-48.2-12.5zm21.6 24.7c6.5 2 13 8.5 15.3 15.1 4.1 11.8-1.4 25.2-12.9 30.8-5.4 2.7-16.4 2.5-21.9-.4-14-7.2-17.8-26.4-7.6-38.2 6.9-8.1 16.6-10.7 27.1-7.3zM188 276.6c-9.3 2.4-16.1 6.4-23.1 13.3-10.7 10.7-15.8 24.2-14.6 38.6 3.7 43 54.5 61.9 84.8 31.6 26-26.1 16-69.8-18.8-82.3-7.3-2.6-20.7-3.2-28.3-1.2zm20.3 25c6.2 2.1 12.9 8.6 15 14.8 1.8 5.4 1.6 13.9-.5 18.8-4.1 9.3-15 15.6-25.2 14.5-20.9-2.2-29.8-27-15.2-42 6.8-7 16.4-9.3 25.9-6.1zM323 275.6c-5.2.9-14.7 4.8-19.5 8-6.6 4.3-10.6 8.6-15 15.9-16.5 27.5-3.3 62.5 27.7 73.1 7.8 2.7 23.3 2.5 31.3-.4 20.6-7.6 33.5-25.9 33.5-47.7 0-22.5-15.5-42.1-38-48-4.5-1.2-15.4-1.6-20-.9zm19.6 27.2c11.6 5.9 16.6 20.8 11 32.7-6.3 13.6-23.1 18.5-35.4 10.4-17.7-11.6-14.6-37.7 5.3-44.7 4.7-1.6 14.4-.8 19.1 1.6z"/></svg>